<svg width="95" height="53" viewBox="0 0 95 53" fill="none" xmlns="http://www.w3.org/2000/svg">
<path id="NU" d="M42.957 0.24663V51.7375H34.6601L10.398 16.6644H9.9706V51.7375H0.642903V0.24663H8.99006L33.227 35.3449H33.6796V0.24663H42.957ZM85.579 0.24663H94.9067V33.8867C94.9067 37.5742 94.0351 40.8175 92.292 43.6167C90.5655 46.4158 88.1351 48.6032 85.0008 50.1787C81.8664 51.7375 78.204 52.517 74.0137 52.517C69.8066 52.517 66.1358 51.7375 63.0015 50.1787C59.8671 48.6032 57.4367 46.4158 55.7103 43.6167C53.9839 40.8175 53.1206 37.5742 53.1206 33.8867V0.24663H62.4483V33.1073C62.4483 35.2527 62.9177 37.1635 63.8563 38.8397C64.8117 40.5158 66.1526 41.8316 67.879 42.787C69.6054 43.7256 71.6503 44.1949 74.0137 44.1949C76.377 44.1949 78.4219 43.7256 80.1483 42.787C81.8915 41.8316 83.2324 40.5158 84.1711 38.8397C85.1097 37.1635 85.579 35.2527 85.579 33.1073V0.24663Z" fill="white"/>
</svg>
